<svg width="84" height="84" viewBox="0 0 84 84" fill="none" xmlns="http://www.w3.org/2000/svg"><path d="M68 58h10V6H6v52h10M6 17h72" stroke="#373A43" stroke-width="2"/><path d="M20 55.5v-18s7.5.25 12-1.5 10-5 10-5 5.5 3.25 10 5 12 1.5 12 1.5v18c0 7.5-3.597 13.037-8.5 16.5-4.434 3.132-10.018 4.417-13.5 6-3.482-1.583-9.066-2.868-13.5-6-4.903-3.463-8.5-9-8.5-16.5z" stroke="#373A43" stroke-width="2"/><circle cx="42" cy="54" r="9" stroke="#36B68A" stroke-width="2"/><path d="M38.5 54l2.5 2 4.5-5" stroke="#36B68A" stroke-width="2"/><path d="M10 10.5h2v2h-2v-2zm4 0h2v2h-2v-2zm4 0h2v2h-2v-2z" fill="#36B68A"/></svg>