<svg width="84" height="84" viewBox="0 0 84 84" fill="none" xmlns="http://www.w3.org/2000/svg"><path d="M78.657 30.373c1.823 0 3.23-1.525 3.23-3.303v-3.134c0-1.863-1.49-3.303-3.23-3.303h-1.656c-.414-1.61-1.077-3.134-1.905-4.574l1.16-1.185c1.242-1.27 1.242-3.388 0-4.743l-2.154-2.202c-.497-.763-1.326-1.101-2.237-1.101-.91 0-1.656.338-2.319.931l-1.16 1.186c-1.407-.847-2.898-1.525-4.472-1.948V5.303C63.914 3.44 62.423 2 60.684 2h-3.065c-1.822 0-3.23 1.525-3.23 3.303v1.694c-1.574.423-3.065 1.101-4.473 1.948l-1.16-1.186c-.58-.593-1.408-.931-2.319-.931s-1.656.338-2.32.931l-2.153 2.202c-1.242 1.27-1.242 3.388 0 4.743l1.16 1.186c-.828 1.44-1.491 2.964-1.905 4.573h-1.657c-1.822 0-3.23 1.525-3.23 3.303V26.9c0 1.864 1.49 3.303 3.23 3.303h1.657c.414 1.61 1.077 3.134 1.905 4.574l-1.16 1.185c-1.242 1.27-1.242 3.388 0 4.743l2.154 2.202c.58.593 1.408.932 2.32.932.91 0 1.656-.339 2.318-.932l1.16-1.185c1.408.847 2.899 1.524 4.473 1.948v1.694c0 1.863 1.49 3.303 3.23 3.303h3.065c1.822 0 3.23-1.525 3.23-3.303V43.67c1.574-.424 3.064-1.101 4.473-1.948l1.16 1.185c.579.593 1.407.932 2.318.932.912 0 1.657-.339 2.32-.932l2.153-2.202c1.243-1.27 1.243-3.387 0-4.742l-1.16-1.017c.829-1.44 1.491-2.964 1.906-4.573h1.573z" stroke="#373A43" stroke-width="2" stroke-miterlimit="10"/><path d="M57.105 55.951c.78.334 1.45.557 2.119.89 2.23.891 3.233 3.452 2.34 5.678-.557 1.225-1.002 2.56-1.56 3.785-.892 2.226-3.456 3.228-5.685 2.338a8.448 8.448 0 01-2.007-1.002 23.28 23.28 0 01-4.682 4.675c.334.78.557 1.448.891 2.115 1.004 2.227-.111 4.787-2.34 5.678-1.227.556-2.565 1.002-3.791 1.558a4.354 4.354 0 01-3.345 0c-1.003-.445-1.895-1.224-2.34-2.337-.335-.78-.558-1.448-.893-2.116a21.71 21.71 0 01-6.577 0c-.334.668-.558 1.448-.892 2.116-.892 2.226-3.456 3.228-5.686 2.337-1.226-.556-2.564-1.002-3.79-1.558-2.23-.89-3.233-3.451-2.341-5.678.334-.779.557-1.447.892-2.115a23.278 23.278 0 01-4.682-4.675c-.78.334-1.45.556-2.119.89a4.354 4.354 0 01-3.344 0c-1.003-.445-1.895-1.224-2.341-2.337-.558-1.225-1.004-2.56-1.561-3.785-1.003-2.227.112-4.787 2.341-5.678.78-.334 1.45-.556 2.118-.89a21.622 21.622 0 010-6.568c-.78-.334-1.449-.557-2.118-.89-2.23-.891-3.233-3.452-2.341-5.678.557-1.225 1.003-2.56 1.56-3.785.893-2.226 3.457-3.228 5.686-2.338.78.334 1.45.557 2.119.89a23.272 23.272 0 014.682-4.675c-.335-.779-.558-1.447-.892-2.115-1.003-2.226.111-4.787 2.341-5.677 1.226-.557 2.564-1.002 3.79-1.559a4.354 4.354 0 013.345 0c1.003.446 1.895 1.225 2.341 2.338.223.668.558 1.447.78 2.226" stroke="#373A43" stroke-width="2" stroke-linecap="round" stroke-linejoin="round"/><path d="M68 25.333a8.889 8.889 0 11-17.777 0 8.889 8.889 0 0117.777 0zM45.78 52.556c0 7.364-5.97 13.333-13.333 13.333-7.364 0-13.334-5.97-13.334-13.333 0-7.364 5.97-13.333 13.334-13.333" stroke="#36B68A" stroke-width="2"/></svg>