<svg width="84" height="84" viewBox="0 0 84 84" fill="none" xmlns="http://www.w3.org/2000/svg"><circle cx="42" cy="42" r="38" stroke="#373A43" stroke-width="2"/><path d="M41.998 3.975C29.962 10.265 21.523 24.922 21.523 42c0 17.077 8.44 31.734 20.475 38.025v-2.238C31.185 71.63 23.473 58.115 23.473 42c0-16.116 7.712-29.632 18.525-35.788V3.975z" fill="#373A43"/><path d="M41.998 3.975c12.037 6.29 21.45 20.947 21.45 38.025 0 17.077-9.413 31.734-21.45 38.025v-2.238c10.814-6.156 19.5-19.672 19.5-35.787 0-16.116-8.686-29.632-19.5-35.788V3.975z" fill="#373A43"/><path d="M13.727 17.625c7.32 5.37 17.646 9.262 28.275 9.262 10.34 0 21.029-3.662 28.275-8.775 0-.487-.301-.988-.75-1.462-6.844 4.784-17.588 8.287-27.525 8.287-10.22 0-20.238-3.748-27.153-8.775-.456.468-.692.97-1.122 1.463zm.486 49.238c7.32-5.37 17.646-9.104 28.275-9.104 10.34 0 20.053 3.504 27.299 8.617.69.487-.527.987-.976 1.462-6.844-4.784-16.385-8.13-26.323-8.13-10.22 0-19.899 3.59-26.814 8.618-1.33.967-2.585-.639-1.46-1.463z" fill="#373A43"/><path fill-rule="evenodd" clip-rule="evenodd" d="M79.052 42.975H3.977v-1.95h75.075v1.95z" fill="#373A43"/><path fill-rule="evenodd" clip-rule="evenodd" d="M41.027 80.025V4.95h1.95v75.075h-1.95z" fill="#373A43"/><path d="M57.6 68c8.163-4.14 14.195-11.877 16.009-21.125h1.985C73.694 57.218 66.848 65.83 57.6 70.17V68zM29.325 12.418c-10.036 4.305-17.44 13.568-19.134 24.707h1.975c1.629-10.047 8.21-18.433 17.159-22.572v-2.135z" fill="#36B68A"/></svg>