<?xml version="1.0" encoding="utf-8"?>
<!-- Generator: Adobe Illustrator 19.0.0, SVG Export Plug-In . SVG Version: 6.00 Build 0)  -->
<svg version="1.1" id="Layer_1" xmlns="http://www.w3.org/2000/svg" xmlns:xlink="http://www.w3.org/1999/xlink" x="0px" y="0px"
	 viewBox="0 0 1600 530" style="enable-background:new 0 0 1600 530;" xml:space="preserve">
<style type="text/css">
	.st0{clip-path:url(#SVGID_2_);fill:#2A5CAA;}
	.st1{clip-path:url(#SVGID_2_);fill:#0091D0;}
	.st2{clip-path:url(#SVGID_2_);fill:#00C0F3;}
	.st3{clip-path:url(#SVGID_2_);fill:#2E3192;}
	.st4{clip-path:url(#SVGID_2_);fill:#6DCFF6;}
	.st5{clip-path:url(#SVGID_2_);fill:#A0DDF9;}
</style>
<g>
	<defs>
		<rect id="SVGID_1_" width="1600" height="530"/>
	</defs>
	<clipPath id="SVGID_2_">
		<use xlink:href="#SVGID_1_"  style="overflow:visible;"/>
	</clipPath>
	<path class="st0" d="M1477.3,189.3c8.1-3.2,17.3,0.8,20.5,9s-0.8,17.3-9,20.5c-8.1,3.2-17.3-0.8-20.5-8.9
		C1465.2,201.7,1469.2,192.5,1477.3,189.3"/>
	<path class="st0" d="M1439.6,139.5c6.4-5.9,16.4-5.5,22.4,0.9c5.9,6.4,5.5,16.4-0.9,22.4c-6.4,5.9-16.5,5.5-22.4-0.9
		C1432.7,155.4,1433.1,145.4,1439.6,139.5"/>
	<path class="st0" d="M1386.4,106.7c3.9-7.8,13.4-11.1,21.2-7.2c7.8,3.9,11.1,13.4,7.2,21.2c-3.9,7.8-13.3,11.1-21.2,7.2
		C1385.7,124,1382.5,114.5,1386.4,106.7"/>
	<path class="st0" d="M1324.9,95.3c0.8-8.7,8.4-15.1,17.2-14.4c8.7,0.8,15.1,8.4,14.4,17.2c-0.8,8.7-8.5,15.1-17.2,14.4
		C1330.6,111.7,1324.1,104,1324.9,95.3"/>
	<path class="st0" d="M1263.5,106.9c-2.4-8.4,2.4-17.2,10.8-19.6c8.4-2.4,17.2,2.4,19.6,10.8c2.4,8.4-2.4,17.2-10.8,19.6
		C1274.7,120.1,1265.9,115.3,1263.5,106.9"/>
	<path class="st0" d="M1210.4,139.9c-5.3-6.9-4-16.9,3-22.2c7-5.3,16.9-4,22.2,3c5.3,6.9,4,16.9-3,22.2
		C1225.6,148.2,1215.7,146.8,1210.4,139.9"/>
	<path class="st0" d="M1172.8,189.9c-7.5-4.6-9.8-14.3-5.2-21.8c4.6-7.5,14.3-9.8,21.8-5.2c7.5,4.6,9.8,14.3,5.2,21.8
		C1190,192.1,1180.2,194.4,1172.8,189.9"/>
	<path class="st0" d="M1155.8,250c-8.6-1.6-14.3-9.8-12.7-18.4c1.6-8.6,9.8-14.3,18.4-12.7c8.6,1.6,14.3,9.8,12.7,18.4
		C1172.6,245.9,1164.4,251.6,1155.8,250"/>
	<path class="st0" d="M1161.7,312.3c-8.6,1.6-16.9-4-18.5-12.6c-1.7-8.6,4-16.9,12.6-18.5s16.9,4,18.5,12.5
		C1175.9,302.3,1170.3,310.6,1161.7,312.3"/>
	<path class="st0" d="M1189.7,368.2c-7.4,4.6-17.2,2.4-21.8-5c-4.6-7.4-2.4-17.2,5-21.8c7.4-4.6,17.2-2.4,21.8,5
		C1199.3,353.8,1197.1,363.5,1189.7,368.2"/>
	<path class="st0" d="M1236,410.2c-5.2,7-15.2,8.4-22.1,3.2c-7-5.2-8.4-15.2-3.2-22.2c5.2-7,15.1-8.4,22.1-3.2
		C1239.7,393.3,1241.2,403.2,1236,410.2"/>
	<path class="st0" d="M1294.3,432.6c-2.3,8.4-11.1,13.3-19.5,11c-8.4-2.4-13.3-11.1-11-19.5c2.3-8.4,11.1-13.3,19.5-11
		C1291.7,415.5,1296.6,424.2,1294.3,432.6"/>
	<path class="st0" d="M1356.8,432.5c0.8,8.7-5.5,16.4-14.2,17.3c-8.7,0.9-16.4-5.5-17.3-14.2c-0.9-8.7,5.5-16.4,14.2-17.3
		C1348.2,417.4,1356,423.8,1356.8,432.5"/>
	<path class="st0" d="M1415.1,409.8c3.9,7.8,0.8,17.3-7,21.3c-7.8,3.9-17.3,0.8-21.3-7c-3.9-7.8-0.8-17.3,7-21.3
		C1401.6,398.9,1411.1,402,1415.1,409.8"/>
	<path class="st0" d="M1461.2,367.6c6.5,5.9,7,15.9,1.2,22.4c-5.9,6.5-15.9,7-22.4,1.2c-6.5-5.9-7-15.9-1.2-22.4
		C1444.7,362.2,1454.7,361.7,1461.2,367.6"/>
	<path class="st0" d="M1488.9,311.5c8.2,3.1,12.3,12.3,9.1,20.4c-3.1,8.2-12.3,12.3-20.4,9.2c-8.2-3.1-12.3-12.3-9.1-20.4
		C1471.6,312.5,1480.7,308.4,1488.9,311.5"/>
	<path class="st0" d="M1494.5,249.3c8.7,0,15.9,7,15.9,15.7c0,8.7-7,15.9-15.7,15.9c-8.7,0.1-15.9-7-15.9-15.7
		C1478.7,256.4,1485.8,249.3,1494.5,249.3"/>
	<path class="st1" d="M1141.1,321.5c7.2-2.8,15.2,0.7,18,7.9c2.8,7.1-0.7,15.2-7.8,18c-7.1,2.8-15.2-0.7-18.1-7.8
		C1130.4,332.4,1133.9,324.3,1141.1,321.5"/>
	<path class="st1" d="M1173.8,384.2c5.7-5.2,14.4-4.8,19.7,0.8c5.2,5.6,4.9,14.4-0.8,19.7c-5.7,5.2-14.4,4.8-19.7-0.8
		C1167.8,398.2,1168.1,389.4,1173.8,384.2"/>
	<path class="st1" d="M1226.9,430.9c3.4-6.9,11.7-9.7,18.6-6.4c6.9,3.4,9.7,11.7,6.4,18.6c-3.4,6.9-11.7,9.7-18.6,6.3
		C1226.4,446.1,1223.5,437.8,1226.9,430.9"/>
	<path class="st1" d="M1293.4,455.2c0.7-7.7,7.4-13.3,15.1-12.7c7.7,0.7,13.3,7.4,12.7,15.1c-0.7,7.7-7.4,13.3-15.1,12.7
		C1298.4,469.6,1292.7,462.8,1293.4,455.2"/>
	<path class="st1" d="M1364.1,453.9c-2.1-7.4,2.1-15.1,9.5-17.2c7.4-2.1,15.1,2.1,17.2,9.5c2.1,7.4-2.1,15.1-9.5,17.2
		C1373.9,465.5,1366.2,461.2,1364.1,453.9"/>
	<path class="st1" d="M1429.5,427.1c-4.7-6.1-3.5-14.8,2.6-19.5c6.1-4.7,14.8-3.5,19.5,2.6c4.7,6.1,3.5,14.8-2.6,19.5
		C1442.9,434.3,1434.2,433.2,1429.5,427.1"/>
	<path class="st1" d="M1480.9,378.4c-6.6-4-8.6-12.6-4.6-19.1c4-6.6,12.6-8.6,19.1-4.6c6.6,4,8.6,12.6,4.6,19.1
		C1496,380.4,1487.5,382.4,1480.9,378.4"/>
	<path class="st1" d="M1511.2,314.5c-7.6-1.4-12.6-8.6-11.2-16.2c1.4-7.6,8.6-12.6,16.2-11.2c7.6,1.4,12.6,8.6,11.2,16.2
		C1526,310.9,1518.8,315.9,1511.2,314.5"/>
	<path class="st1" d="M1516.4,244c-7.5,1.5-14.8-3.5-16.3-11c-1.5-7.5,3.5-14.8,11-16.3c7.5-1.4,14.8,3.5,16.3,11
		C1528.9,235.2,1523.9,242.5,1516.4,244"/>
	<path class="st1" d="M1495.7,176.3c-6.5,4.1-15.1,2.1-19.2-4.4c-4.1-6.5-2.1-15.1,4.4-19.2c6.5-4.1,15.1-2.1,19.2,4.4
		C1504.2,163.6,1502.2,172.2,1495.7,176.3"/>
	<path class="st1" d="M1452,120.7c-4.6,6.2-13.3,7.4-19.5,2.8c-6.2-4.6-7.4-13.3-2.8-19.5c4.6-6.2,13.3-7.4,19.5-2.8
		C1455.4,105.8,1456.6,114.5,1452,120.7"/>
	<path class="st1" d="M1391.2,84.6c-2.1,7.4-9.7,11.7-17.1,9.7c-7.4-2.1-11.7-9.7-9.7-17.1c2.1-7.4,9.7-11.7,17.1-9.7
		C1388.9,69.6,1393.2,77.2,1391.2,84.6"/>
	<path class="st1" d="M1321.4,73c0.8,7.6-4.8,14.5-12.5,15.2c-7.7,0.8-14.5-4.8-15.2-12.5c-0.8-7.7,4.8-14.5,12.5-15.2
		C1313.8,59.7,1320.7,65.3,1321.4,73"/>
	<path class="st1" d="M1252.2,87.3c3.5,6.9,0.7,15.2-6.1,18.7c-6.8,3.5-15.2,0.7-18.7-6.1c-3.5-6.9-0.7-15.2,6.1-18.7
		C1240.3,77.7,1248.7,80.5,1252.2,87.3"/>
	<path class="st1" d="M1192.7,125.7c5.7,5.1,6.2,13.9,1,19.7c-5.1,5.7-13.9,6.2-19.6,1c-5.7-5.1-6.2-14-1-19.7
		C1178.2,121,1187,120.6,1192.7,125.7"/>
	<path class="st1" d="M1151.2,183c7.2,2.7,10.8,10.8,8.1,18c-2.7,7.2-10.8,10.8-17.9,8.1c-7.2-2.7-10.8-10.8-8.1-18
		C1136,183.9,1144,180.3,1151.2,183"/>
	<path class="st1" d="M1133.2,251.4c7.7,0,13.9,6.1,14,13.8c0,7.7-6.1,14-13.8,14c-7.7,0-14-6.1-14-13.8
		C1119.3,257.7,1125.5,251.4,1133.2,251.4"/>
	<path class="st2" d="M1332.4,57.5c0.6-7,6.7-12.1,13.7-11.5c7,0.6,12.1,6.7,11.5,13.7c-0.6,7-6.7,12.2-13.7,11.6
		C1336.9,70.6,1331.8,64.4,1332.4,57.5"/>
	<path class="st2" d="M1514.4,178.6c6.5-2.6,13.9,0.6,16.5,7.1c2.6,6.5-0.6,13.9-7.1,16.5c-6.5,2.6-13.9-0.6-16.5-7.1
		C1504.7,188.5,1507.9,181.1,1514.4,178.6"/>
	<path class="st2" d="M1470.4,116.2c5.1-4.7,13.2-4.4,17.9,0.7c4.7,5.1,4.4,13.2-0.7,17.9c-5.1,4.8-13.2,4.4-17.9-0.7
		C1465,129,1465.3,120.9,1470.4,116.2"/>
	<path class="st2" d="M1406.9,73.9c3.1-6.3,10.7-8.9,17-5.8c6.3,3.1,8.9,10.7,5.8,17c-3.1,6.3-10.7,8.9-17,5.8
		C1406.4,87.8,1403.8,80.2,1406.9,73.9"/>
	<path class="st2" d="M1256.9,69c-2-6.7,1.9-13.8,8.6-15.7c6.7-2,13.8,1.9,15.7,8.6c2,6.7-1.9,13.8-8.6,15.7
		C1265.9,79.6,1258.9,75.8,1256.9,69"/>
	<path class="st2" d="M1190.8,107.1c-4.3-5.6-3.2-13.5,2.4-17.8c5.6-4.3,13.5-3.2,17.8,2.4c4.3,5.6,3.2,13.5-2.4,17.8
		C1203,113.7,1195,112.6,1190.8,107.1"/>
	<path class="st2" d="M1142.8,166.5c-6-3.6-7.9-11.4-4.2-17.4c3.7-6,11.5-7.9,17.4-4.2c6,3.7,7.9,11.5,4.2,17.4
		C1156.6,168.2,1148.8,170.1,1142.8,166.5"/>
	<path class="st2" d="M1119.6,239.1c-6.9-1.2-11.5-7.8-10.2-14.7c1.2-6.9,7.8-11.5,14.7-10.2c6.9,1.2,11.5,7.8,10.2,14.7
		C1133.1,235.8,1126.5,240.4,1119.6,239.1"/>
	<path class="st2" d="M1124.2,315.3c-6.9,1.3-13.5-3.2-14.9-10c-1.3-6.9,3.2-13.5,10-14.9c6.9-1.3,13.5,3.2,14.9,10
		C1135.5,307.3,1131,314,1124.2,315.3"/>
	<path class="st2" d="M1156,384.7c-5.9,3.7-13.8,1.9-17.5-4c-3.7-5.9-1.9-13.8,4-17.5c5.9-3.7,13.8-1.9,17.5,4
		C1163.7,373.1,1161.9,381,1156,384.7"/>
	<path class="st2" d="M1210.7,437.9c-4.2,5.6-12.1,6.8-17.7,2.6c-5.6-4.2-6.8-12.1-2.6-17.7c4.2-5.6,12.1-6.8,17.7-2.6
		C1213.7,424.3,1214.9,432.3,1210.7,437.9"/>
	<path class="st2" d="M1280.9,467.7c-1.9,6.7-8.9,10.7-15.6,8.8c-6.7-1.9-10.7-8.9-8.8-15.6c1.9-6.7,8.9-10.7,15.6-8.8
		C1278.8,454,1282.8,461,1280.9,467.7"/>
	<path class="st2" d="M1357.2,470.2c0.7,7-4.4,13.2-11.4,13.9c-7,0.7-13.2-4.4-13.9-11.4c-0.7-7,4.4-13.2,11.4-13.9
		C1350.3,458.1,1356.5,463.2,1357.2,470.2"/>
	<path class="st2" d="M1429.2,444.9c3.2,6.3,0.7,13.9-5.6,17c-6.3,3.2-13.9,0.7-17-5.6c-3.2-6.2-0.7-13.9,5.6-17
		C1418.4,436.2,1426,438.7,1429.2,444.9"/>
	<path class="st2" d="M1487.2,395.3c5.2,4.7,5.6,12.7,1,17.9c-4.7,5.2-12.7,5.6-17.9,1c-5.2-4.7-5.6-12.7-1-17.9
		C1474,391.1,1482,390.6,1487.2,395.3"/>
	<path class="st2" d="M1523.4,328.1c6.5,2.5,9.8,9.8,7.4,16.4c-2.5,6.5-9.8,9.8-16.4,7.4c-6.5-2.5-9.8-9.8-7.4-16.4
		C1509.5,329,1516.8,325.6,1523.4,328.1"/>
	<path class="st2" d="M1532.9,252.4c7-0.1,12.7,5.6,12.8,12.6c0,7-5.6,12.7-12.6,12.8c-7,0.1-12.7-5.6-12.8-12.6
		C1520.2,258.2,1525.8,252.5,1532.9,252.4"/>
	<path class="st3" d="M1208.8,348.6c6.8-6.2,17.3-5.8,23.5,1c6.2,6.8,5.8,17.3-1,23.6c-6.8,6.2-17.3,5.8-23.5-1
		C1201.5,365.4,1202,354.8,1208.8,348.6"/>
	<path class="st3" d="M1186.6,300.9c8.6-3.4,18.2,0.9,21.6,9.4c3.4,8.6-0.9,18.2-9.4,21.6c-8.6,3.4-18.2-0.9-21.6-9.4
		C1173.8,314,1178,304.3,1186.6,300.9"/>
	<path class="st3" d="M1246.7,385.1c4.1-8.3,14.1-11.6,22.3-7.6c8.3,4.1,11.6,14.1,7.6,22.3c-4.1,8.3-14.1,11.6-22.3,7.6
		C1246,403.3,1242.7,393.3,1246.7,385.1"/>
	<path class="st3" d="M1295.3,405.3c0.8-9.2,8.9-15.9,18.1-15.1c9.2,0.8,15.9,8.9,15.1,18.1c-0.8,9.2-8.9,15.9-18.1,15.1
		C1301.2,422.6,1294.4,414.5,1295.3,405.3"/>
	<path class="st3" d="M1347.8,406.7c-2.5-8.8,2.5-18.1,11.4-20.6c8.8-2.5,18.1,2.5,20.6,11.4c2.5,8.8-2.5,18.1-11.4,20.6
		C1359.6,420.6,1350.4,415.5,1347.8,406.7"/>
	<path class="st3" d="M1397.4,389c-5.6-7.3-4.2-17.8,3.2-23.3c7.3-5.6,17.8-4.2,23.3,3.2c5.6,7.3,4.1,17.8-3.2,23.4
		C1413.4,397.7,1402.9,396.3,1397.4,389"/>
	<path class="st3" d="M1437.1,354.5c-7.8-4.8-10.3-15.1-5.5-22.9c4.8-7.8,15.1-10.3,22.9-5.5c7.8,4.8,10.3,15.1,5.5,22.9
		C1455.2,356.9,1445,359.3,1437.1,354.5"/>
	<path class="st3" d="M1461.8,308.1c-9.1-1.7-15-10.3-13.4-19.4c1.7-9.1,10.3-15,19.4-13.4c9,1.7,15,10.3,13.4,19.4
		C1479.5,303.7,1470.8,309.7,1461.8,308.1"/>
	<path class="st3" d="M1468,255.8c-9,1.7-17.8-4.2-19.5-13.2c-1.7-9,4.2-17.8,13.2-19.5c9-1.7,17.8,4.2,19.5,13.2
		C1482.9,245.4,1477,254.1,1468,255.8"/>
	<path class="st3" d="M1454.9,204.9c-7.8,4.9-18.1,2.5-23-5.3c-4.9-7.8-2.5-18.1,5.3-23c7.8-4.9,18.1-2.5,22.9,5.3
		C1465.1,189.7,1462.7,200,1454.9,204.9"/>
	<path class="st3" d="M1424.3,162.1c-5.5,7.4-16,8.9-23.3,3.4c-7.4-5.5-8.9-16-3.4-23.3c5.5-7.4,16-8.9,23.3-3.4
		C1428.3,144.3,1429.8,154.8,1424.3,162.1"/>
	<path class="st3" d="M1380.3,133.3c-2.5,8.9-11.7,14-20.5,11.6c-8.9-2.5-14-11.7-11.6-20.5c2.5-8.9,11.7-14,20.5-11.5
		C1377.6,115.2,1382.7,124.4,1380.3,133.3"/>
	<path class="st3" d="M1328.8,122.3c0.9,9.2-5.8,17.3-15,18.2c-9.2,0.9-17.3-5.8-18.2-15c-0.9-9.1,5.8-17.3,15-18.2
		C1319.8,106.5,1327.9,113.2,1328.8,122.3"/>
	<path class="st3" d="M1276.9,130.7c4.1,8.2,0.8,18.2-7.4,22.4c-8.2,4.1-18.2,0.8-22.4-7.4c-4.1-8.2-0.8-18.2,7.4-22.4
		C1262.7,119.2,1272.7,122.5,1276.9,130.7"/>
	<path class="st3" d="M1231.5,157.2c6.8,6.2,7.4,16.7,1.2,23.5c-6.2,6.8-16.7,7.4-23.5,1.2c-6.8-6.2-7.4-16.7-1.2-23.5
		C1214.1,151.6,1224.7,151.1,1231.5,157.2"/>
	<path class="st3" d="M1198.7,198.4c8.6,3.3,12.9,12.9,9.6,21.5c-3.3,8.6-12.9,12.9-21.5,9.6c-8.6-3.3-12.9-12.9-9.6-21.5
		C1180.5,199.4,1190.1,195.1,1198.7,198.4"/>
	<path class="st3" d="M1183.1,248.6c9.2,0,16.7,7.4,16.7,16.6c0,9.2-7.4,16.7-16.6,16.7c-9.2,0-16.7-7.4-16.7-16.6
		C1166.4,256.1,1173.9,248.6,1183.1,248.6"/>
	<path class="st3" d="M1419.2,210.6c8.8-3.5,18.8,0.9,22.2,9.7c3.5,8.8-0.9,18.8-9.7,22.2c-8.8,3.5-18.8-0.9-22.2-9.7
		C1406,224.1,1410.3,214.1,1419.2,210.6"/>
	<path class="st3" d="M1393.2,180.5c7-6.4,17.8-6,24.2,1c6.4,7,6,17.8-1,24.3c-7,6.4-17.8,6-24.3-1
		C1385.8,197.8,1386.2,186.9,1393.2,180.5"/>
	<path class="st3" d="M1358.1,161.8c4.2-8.5,14.5-12,23-7.8c8.5,4.2,12,14.5,7.8,23c-4.2,8.5-14.5,12-23,7.8
		C1357.4,180.5,1353.9,170.3,1358.1,161.8"/>
	<path class="st3" d="M1318.6,157c0.8-9.4,9.2-16.4,18.6-15.6c9.4,0.8,16.4,9.2,15.6,18.6c-0.8,9.4-9.2,16.4-18.6,15.6
		C1324.8,174.7,1317.8,166.4,1318.6,157"/>
	<path class="st3" d="M1280.1,166.8c-2.6-9.1,2.6-18.6,11.7-21.3c9.1-2.6,18.6,2.6,21.3,11.7c2.6,9.1-2.6,18.6-11.7,21.3
		C1292.2,181.1,1282.7,175.9,1280.1,166.8"/>
	<path class="st3" d="M1247.7,189.9c-5.7-7.5-4.3-18.3,3.2-24.1c7.5-5.7,18.3-4.3,24,3.2c5.8,7.5,4.3,18.3-3.2,24.1
		C1264.2,198.8,1253.4,197.4,1247.7,189.9"/>
	<path class="st3" d="M1225.8,223.1c-8.1-5-10.6-15.5-5.7-23.6c5-8.1,15.5-10.6,23.6-5.7c8.1,4.9,10.6,15.5,5.7,23.6
		C1244.4,225.5,1233.9,228,1225.8,223.1"/>
	<path class="st3" d="M1217.4,262c-9.3-1.7-15.5-10.6-13.8-19.9c1.7-9.3,10.6-15.5,20-13.8c9.3,1.7,15.5,10.6,13.8,19.9
		C1235.6,257.5,1226.7,263.7,1217.4,262"/>
	<path class="st3" d="M1223.6,301.2c-9.3,1.8-18.3-4.3-20.1-13.6c-1.8-9.3,4.3-18.3,13.6-20.1c9.3-1.8,18.3,4.3,20.1,13.6
		C1239,290.5,1232.9,299.5,1223.6,301.2"/>
	<path class="st3" d="M1243.6,335.6c-8,5-18.6,2.6-23.7-5.4c-5-8-2.6-18.6,5.4-23.6c8-5,18.6-2.6,23.7,5.4
		C1254.1,320,1251.6,330.6,1243.6,335.6"/>
	<path class="st3" d="M1274.7,360.5c-5.7,7.6-16.4,9.1-24,3.5c-7.6-5.7-9.1-16.4-3.5-24c5.7-7.6,16.4-9.1,24-3.5
		C1278.8,342.1,1280.3,352.9,1274.7,360.5"/>
	<path class="st3" d="M1312.6,372.4c-2.5,9.1-12,14.5-21.1,11.9c-9.1-2.6-14.5-12-11.9-21.1c2.5-9.1,12-14.5,21.1-11.9
		C1309.8,353.8,1315.2,363.3,1312.6,372.4"/>
	<path class="st3" d="M1352.3,369.8c0.9,9.4-6,17.8-15.4,18.8c-9.4,0.9-17.8-6-18.7-15.4c-0.9-9.4,6-17.8,15.4-18.7
		C1343,353.5,1351.4,360.4,1352.3,369.8"/>
	<path class="st3" d="M1388.4,353.1c4.3,8.5,0.9,18.8-7.6,23c-8.5,4.3-18.8,0.9-23.1-7.6c-4.3-8.5-0.9-18.8,7.6-23
		C1373.8,341.2,1384.1,344.6,1388.4,353.1"/>
	<path class="st3" d="M1416,324.5c7,6.3,7.6,17.2,1.3,24.2c-6.4,7-17.2,7.6-24.2,1.3c-7-6.3-7.6-17.2-1.3-24.2
		C1398.1,318.7,1409,318.1,1416,324.5"/>
	<path class="st3" d="M1431.4,287.8c8.9,3.4,13.3,13.3,9.9,22.1c-3.4,8.9-13.3,13.3-22.1,9.9c-8.8-3.4-13.3-13.3-9.9-22.1
		C1412.6,288.8,1422.5,284.4,1431.4,287.8"/>
	<path class="st3" d="M1432.5,248c9.5-0.1,17.2,7.6,17.2,17.1c0.1,9.5-7.6,17.2-17.1,17.2c-9.5,0.1-17.2-7.6-17.3-17.1
		C1415.3,255.8,1423,248.1,1432.5,248"/>
	<path class="st4" d="M1398.3,50.2c-1.7,6.1-8,9.7-14.1,8c-6.1-1.7-9.7-8-8-14.1c1.7-6.1,8-9.7,14.1-8
		C1396.4,37.8,1400,44.1,1398.3,50.2"/>
	<path class="st4" d="M1315.8,38.4c0.6,6.3-3.9,11.9-10.2,12.5c-6.3,0.6-11.9-4-12.5-10.2c-0.6-6.3,3.9-11.9,10.2-12.5
		C1309.5,27.5,1315.1,32.1,1315.8,38.4"/>
	<path class="st4" d="M1234.6,57.2c2.9,5.6,0.6,12.5-5,15.4c-5.6,2.9-12.5,0.6-15.4-5c-2.9-5.6-0.6-12.5,5-15.4
		C1224.8,49.4,1231.7,51.6,1234.6,57.2"/>
	<path class="st4" d="M1398.3,50.2c-1.7,6.1-8,9.7-14.1,8c-6.1-1.7-9.7-8-8-14.1c1.7-6.1,8-9.7,14.1-8
		C1396.4,37.8,1400,44.1,1398.3,50.2"/>
	<path class="st4" d="M1315.8,38.4c0.6,6.3-3.9,11.9-10.2,12.5c-6.3,0.6-11.9-4-12.5-10.2c-0.6-6.3,3.9-11.9,10.2-12.5
		C1309.5,27.5,1315.1,32.1,1315.8,38.4"/>
	<path class="st4" d="M1234.6,57.2c2.9,5.6,0.6,12.5-5,15.4c-5.6,2.9-12.5,0.6-15.4-5c-2.9-5.6-0.6-12.5,5-15.4
		C1224.8,49.4,1231.7,51.6,1234.6,57.2"/>
	<path class="st4" d="M1110.3,336.2c5.9-2.3,12.5,0.5,14.9,6.4c2.3,5.9-0.6,12.5-6.4,14.9c-5.9,2.3-12.5-0.5-14.9-6.4
		C1101.5,345.2,1104.4,338.6,1110.3,336.2"/>
	<path class="st4" d="M1150.6,409.2c4.6-4.3,11.9-4,16.2,0.6c4.3,4.6,4,11.9-0.6,16.2c-4.6,4.3-11.9,4-16.2-0.6
		C1145.6,420.7,1145.9,413.5,1150.6,409.2"/>
	<path class="st4" d="M1214.5,462.7c2.8-5.7,9.6-8,15.3-5.3c5.7,2.8,8,9.6,5.3,15.3c-2.8,5.7-9.6,8-15.3,5.3
		C1214.1,475.2,1211.7,468.4,1214.5,462.7"/>
	<path class="st4" d="M1293.4,489.5c0.5-6.3,6.1-11,12.4-10.4c6.3,0.5,11,6.1,10.4,12.4c-0.5,6.3-6.1,11-12.4,10.4
		C1297.6,501.3,1292.9,495.8,1293.4,489.5"/>
	<path class="st4" d="M1376.7,485.9c-1.8-6.1,1.7-12.4,7.8-14.2c6.1-1.8,12.4,1.7,14.2,7.8c1.8,6.1-1.7,12.4-7.8,14.2
		C1384.9,495.5,1378.5,492,1376.7,485.9"/>
	<path class="st4" d="M1453.1,452.5c-3.9-5-2.9-12.2,2.1-16c5-3.9,12.2-2.9,16,2.1c3.9,5,2.9,12.2-2.1,16.1
		C1464.1,458.5,1456.9,457.5,1453.1,452.5"/>
	<path class="st4" d="M1512.2,393.8c-5.4-3.3-7.1-10.3-3.8-15.7c3.3-5.4,10.3-7.1,15.7-3.8c5.4,3.3,7.1,10.3,3.8,15.7
		C1524.7,395.3,1517.6,397,1512.2,393.8"/>
	<path class="st4" d="M1546.2,317.6c-6.2-1.1-10.4-7.1-9.3-13.3c1.1-6.2,7-10.4,13.3-9.2c6.2,1.1,10.4,7,9.3,13.3
		C1558.3,314.6,1552.4,318.7,1546.2,317.6"/>
	<path class="st4" d="M1550.3,234.4c-6.2,1.2-12.2-2.8-13.4-9c-1.2-6.2,2.8-12.2,9-13.4c6.2-1.2,12.2,2.8,13.4,9
		C1560.5,227.2,1556.5,233.2,1550.3,234.4"/>
	<path class="st4" d="M1524,155.3c-5.3,3.4-12.4,1.8-15.8-3.6c-3.4-5.3-1.8-12.4,3.6-15.8c5.3-3.4,12.4-1.8,15.8,3.6
		C1531,144.8,1529.4,151.9,1524,155.3"/>
	<path class="st4" d="M1471,91c-3.8,5.1-10.9,6.1-16,2.4c-5.1-3.8-6.1-10.9-2.4-16c3.8-5.1,10.9-6.1,16-2.4
		C1473.7,78.7,1474.8,85.9,1471,91"/>
	<path class="st4" d="M1165.7,104.2c4.7,4.2,5.1,11.5,0.9,16.2c-4.2,4.7-11.5,5.1-16.2,0.9c-4.7-4.2-5.1-11.5-0.9-16.2
		C1153.7,100.3,1161,99.9,1165.7,104.2"/>
	<path class="st4" d="M1118.4,172.8c5.9,2.2,8.9,8.8,6.7,14.8c-2.2,5.9-8.8,8.9-14.8,6.7c-5.9-2.2-8.9-8.8-6.7-14.7
		C1105.9,173.5,1112.5,170.5,1118.4,172.8"/>
	<path class="st4" d="M1099.1,253.9c6.3-0.1,11.5,5,11.5,11.4c0.1,6.3-5,11.5-11.3,11.5c-6.3,0.1-11.5-5-11.6-11.3
		C1087.7,259.1,1092.7,253.9,1099.1,253.9"/>
	<path class="st4" d="M1110.3,336.2c5.9-2.3,12.5,0.5,14.9,6.4c2.3,5.9-0.6,12.5-6.4,14.9c-5.9,2.3-12.5-0.5-14.9-6.4
		C1101.5,345.2,1104.4,338.6,1110.3,336.2"/>
	<path class="st4" d="M1150.6,409.2c4.6-4.3,11.9-4,16.2,0.6c4.3,4.6,4,11.9-0.6,16.2c-4.6,4.3-11.9,4-16.2-0.6
		C1145.6,420.7,1145.9,413.5,1150.6,409.2"/>
	<path class="st4" d="M1214.5,462.7c2.8-5.7,9.6-8,15.3-5.3c5.7,2.8,8,9.6,5.3,15.3c-2.8,5.7-9.6,8-15.3,5.3
		C1214.1,475.2,1211.7,468.4,1214.5,462.7"/>
	<path class="st4" d="M1293.4,489.5c0.5-6.3,6.1-11,12.4-10.4c6.3,0.5,11,6.1,10.4,12.4c-0.5,6.3-6.1,11-12.4,10.4
		C1297.6,501.3,1292.9,495.8,1293.4,489.5"/>
	<path class="st4" d="M1376.7,485.9c-1.8-6.1,1.7-12.4,7.8-14.2c6.1-1.8,12.4,1.7,14.2,7.8c1.8,6.1-1.7,12.4-7.8,14.2
		C1384.9,495.5,1378.5,492,1376.7,485.9"/>
	<path class="st4" d="M1453.1,452.5c-3.9-5-2.9-12.2,2.1-16c5-3.9,12.2-2.9,16,2.1c3.9,5,2.9,12.2-2.1,16.1
		C1464.1,458.5,1456.9,457.5,1453.1,452.5"/>
	<path class="st4" d="M1512.2,393.8c-5.4-3.3-7.1-10.3-3.8-15.7c3.3-5.4,10.3-7.1,15.7-3.8c5.4,3.3,7.1,10.3,3.8,15.7
		C1524.7,395.3,1517.6,397,1512.2,393.8"/>
	<path class="st4" d="M1546.2,317.6c-6.2-1.1-10.4-7.1-9.3-13.3c1.1-6.2,7-10.4,13.3-9.2c6.2,1.1,10.4,7,9.3,13.3
		C1558.3,314.6,1552.4,318.7,1546.2,317.6"/>
	<path class="st4" d="M1550.3,234.4c-6.2,1.2-12.2-2.8-13.4-9c-1.2-6.2,2.8-12.2,9-13.4c6.2-1.2,12.2,2.8,13.4,9
		C1560.5,227.2,1556.5,233.2,1550.3,234.4"/>
	<path class="st4" d="M1524,155.3c-5.3,3.4-12.4,1.8-15.8-3.6c-3.4-5.3-1.8-12.4,3.6-15.8c5.3-3.4,12.4-1.8,15.8,3.6
		C1531,144.8,1529.4,151.9,1524,155.3"/>
	<path class="st4" d="M1471,91c-3.8,5.1-10.9,6.1-16,2.4c-5.1-3.8-6.1-10.9-2.4-16c3.8-5.1,10.9-6.1,16-2.4
		C1473.7,78.7,1474.8,85.9,1471,91"/>
	<path class="st4" d="M1165.7,104.2c4.7,4.2,5.1,11.5,0.9,16.2c-4.2,4.7-11.5,5.1-16.2,0.9c-4.7-4.2-5.1-11.5-0.9-16.2
		C1153.7,100.3,1161,99.9,1165.7,104.2"/>
	<path class="st4" d="M1118.4,172.8c5.9,2.2,8.9,8.8,6.7,14.8c-2.2,5.9-8.8,8.9-14.8,6.7c-5.9-2.2-8.9-8.8-6.7-14.7
		C1105.9,173.5,1112.5,170.5,1118.4,172.8"/>
	<path class="st4" d="M1099.1,253.9c6.3-0.1,11.5,5,11.5,11.4c0.1,6.3-5,11.5-11.3,11.5c-6.3,0.1-11.5-5-11.6-11.3
		C1087.7,259.1,1092.7,253.9,1099.1,253.9"/>
	<path class="st5" d="M1424.5,43.9c2.5-5.1,8.7-7.3,13.8-4.8c5.1,2.5,7.3,8.7,4.8,13.8c-2.5,5.1-8.7,7.3-13.8,4.8
		C1424.1,55.2,1422,49,1424.5,43.9"/>
	<path class="st5" d="M1337.9,23.1c0.5-5.7,5.5-9.9,11.2-9.4c5.7,0.5,9.9,5.5,9.4,11.2c-0.5,5.7-5.5,9.9-11.2,9.4
		C1341.7,33.8,1337.4,28.8,1337.9,23.1"/>
	<path class="st5" d="M1249.7,35c-1.6-5.5,1.5-11.2,7-12.8c5.5-1.6,11.2,1.5,12.8,7c1.6,5.5-1.5,11.2-7,12.8
		C1257,43.6,1251.3,40.4,1249.7,35"/>
	<path class="st5" d="M1547.6,168.2c5.3-2.1,11.3,0.5,13.4,5.8c2.1,5.3-0.5,11.3-5.8,13.4c-5.3,2.1-11.3-0.5-13.4-5.8
		C1539.7,176.4,1542.3,170.4,1547.6,168.2"/>
	<path class="st5" d="M1497.7,94.6c4.2-3.9,10.7-3.6,14.6,0.5c3.9,4.2,3.6,10.7-0.5,14.6c-4.2,3.9-10.7,3.6-14.6-0.6
		C1493.2,105,1493.5,98.4,1497.7,94.6"/>
	<path class="st5" d="M1171.7,77.9c-3.5-4.5-2.6-11,1.9-14.5c4.5-3.5,11-2.6,14.5,1.9c3.5,4.5,2.6,11-1.9,14.5
		C1181.7,83.3,1175.2,82.4,1171.7,77.9"/>
	<path class="st5" d="M1114.5,146.2c-4.9-3-6.4-9.3-3.5-14.2c3-4.9,9.3-6.4,14.2-3.5c4.9,3,6.4,9.3,3.5,14.2
		C1125.8,147.6,1119.4,149.1,1114.5,146.2"/>
	<path class="st5" d="M1085.9,230.4c-5.6-1-9.4-6.4-8.4-12c1-5.6,6.4-9.4,12-8.4c5.6,1,9.4,6.4,8.4,12
		C1096.8,227.7,1091.5,231.4,1085.9,230.4"/>
	<path class="st5" d="M1089.6,319.4c-5.6,1.1-11-2.5-12.1-8.1c-1.1-5.6,2.6-11,8.1-12.1c5.6-1.1,11,2.5,12.1,8.1
		C1098.8,312.9,1095.2,318.3,1089.6,319.4"/>
	<path class="st5" d="M1125.2,401c-4.8,3.1-11.2,1.6-14.2-3.2c-3.1-4.8-1.6-11.2,3.2-14.3c4.8-3,11.2-1.6,14.3,3.2
		C1131.4,391.5,1130,397.9,1125.2,401"/>
	<path class="st5" d="M1187.8,464.2c-3.4,4.6-9.9,5.6-14.4,2.2c-4.6-3.4-5.5-9.9-2.1-14.4c3.4-4.6,9.9-5.6,14.4-2.2
		C1190.3,453.1,1191.2,459.6,1187.8,464.2"/>
	<path class="st5" d="M1269.1,500.5c-1.5,5.5-7.2,8.7-12.7,7.2c-5.5-1.5-8.7-7.2-7.2-12.7c1.5-5.5,7.2-8.7,12.7-7.2
		C1267.4,489.3,1270.6,495,1269.1,500.5"/>
	<path class="st5" d="M1358,505c0.6,5.7-3.6,10.7-9.2,11.3c-5.7,0.6-10.8-3.6-11.3-9.2c-0.6-5.7,3.6-10.7,9.2-11.3
		C1352.4,495.2,1357.4,499.3,1358,505"/>
	<path class="st5" d="M1442.6,477.1c2.6,5.1,0.6,11.3-4.5,13.9c-5.1,2.6-11.3,0.6-13.9-4.5c-2.6-5.1-0.6-11.3,4.5-13.9
		C1433.7,469.9,1440,472,1442.6,477.1"/>
	<path class="st5" d="M1511.3,420.5c4.2,3.8,4.6,10.3,0.8,14.6c-3.8,4.3-10.3,4.6-14.6,0.8c-4.3-3.8-4.6-10.3-0.8-14.6
		C1500.5,417,1507,416.7,1511.3,420.5"/>
	<path class="st5" d="M1554.9,342.9c5.3,2,8,8,6,13.3c-2,5.3-8,8-13.3,6c-5.3-2-8-8-6-13.3C1543.6,343.6,1549.6,340.9,1554.9,342.9"
		/>
	<path class="st5" d="M1567.6,254.7c5.7-0.1,10.4,4.5,10.4,10.2c0.1,5.7-4.5,10.4-10.2,10.4c-5.7,0-10.4-4.5-10.4-10.2
		C1557.3,259.5,1561.8,254.8,1567.6,254.7"/>
	<rect x="913.3" y="202.4" class="st3" width="44.3" height="156.3"/>
	<path class="st3" d="M959.1,161.1c0,13.1-10.6,23.6-23.6,23.6c-13.1,0-23.7-10.6-23.7-23.6c0-13.1,10.6-23.6,23.7-23.6
		C948.5,137.4,959.1,148,959.1,161.1"/>
	<path class="st3" d="M126.6,151.6c-58.1,0-105.1,47.1-105.1,105.1c0,58.1,47.1,105.1,105.1,105.1s105.1-47.1,105.1-105.1
		C231.8,198.7,184.7,151.6,126.6,151.6 M126.6,318.4c-34,0-61.6-27.6-61.6-61.6c0-34,27.6-61.6,61.6-61.6s61.6,27.6,61.6,61.6
		C188.3,290.8,160.7,318.4,126.6,318.4"/>
	<path class="st3" d="M642.1,199.4c-44.9,0-81.2,36.4-81.2,81.2c0,44.9,36.4,81.2,81.2,81.2c44.8,0,81.2-36.4,81.2-81.2
		C723.3,235.8,686.9,199.4,642.1,199.4 M642.1,323.7c-23.7,0-43-19.3-43-43c0-23.7,19.3-43,43-43c23.7,0,43,19.3,43,43
		C685.1,304.4,665.8,323.7,642.1,323.7"/>
	<rect x="987.2" y="145.8" class="st3" width="44.3" height="212.9"/>
	<path class="st3" d="M392.2,358.7h-42.5v-90.4c0-16-13-29.1-29.1-29.1c-16,0-29.1,13-29.1,29.1v90.4H249v-90.4
		c0-39.5,32.1-71.6,71.6-71.6c39.5,0,71.6,32.1,71.6,71.6V358.7z"/>
	<path class="st3" d="M527.2,304.1c-7.7,11.7-20.9,19.5-36,19.5c-23.8,0-43-19.3-43-43c0-23.8,19.2-43,43-43
		c14.5,0,27.2,7.2,35,18.1l26.5-28.1c-14.9-17.2-36.9-28.2-61.5-28.2c-44.9,0-81.2,36.4-81.2,81.2c0,44.9,36.4,81.2,81.2,81.2
		c25.3,0,48-11.6,62.9-29.8L527.2,304.1z"/>
	<path class="st3" d="M817.2,360.5c-31.7,0-61.9-11.3-85.3-31.7l25.2-30.1c20.4,16.6,39.8,24.4,61,24.4c18.9,0,30.7-7.8,30.7-20.5
		V302c0-12.8-9.1-18.7-42.1-27.2c-39.2-10-67-20.3-67-61.5v-0.6c0-35.7,29-60.6,70.5-60.6c28.3,0,53.3,8.4,74.5,25.1l-22.1,32.1
		c-19.4-13.3-36.7-19.7-52.9-19.7c-16.7,0-27.5,7.5-27.5,19v0.6c0,14.4,9.6,19,45,28c39.5,10.3,64.1,24,64.1,60.3v0.6
		C891.2,336.6,862.8,360.5,817.2,360.5"/>
	<polygon class="st3" points="707.7,450.1 701.8,450.1 684.5,423.1 684.5,462.7 676.1,462.7 676.1,403.9 682,403.9 704.7,439.8 
		727.4,403.9 733.3,403.9 733.3,462.7 724.9,462.7 724.9,423.1 	"/>
	<polygon class="st3" points="776.9,427 776.9,435 757.6,435 757.6,454.7 783.7,454.7 783.7,462.7 749.2,462.7 749.2,403.9 
		782.8,403.9 782.8,411.9 757.6,411.9 757.6,427 	"/>
	<path class="st3" d="M794.6,462.7v-58.8h17.6c9.3,0,15.4,2,20.2,5.5c7.2,5.4,11.8,14.1,11.8,23.9c0,9.7-4.5,18.5-11.7,23.9
		c-4.8,3.5-10.9,5.5-20.3,5.5H794.6z M828.6,416.8c-3.7-3.2-8.6-5-16.8-5H803v42.9h8.8c8.2,0,13.1-1.8,16.8-5
		c4.4-3.9,7.1-9.9,7.1-16.5C835.7,426.7,833,420.8,828.6,416.8"/>
	<rect x="856" y="403.9" class="st3" width="8.4" height="58.8"/>
	<path class="st3" d="M905.9,403c8.4,0,16.4,3.4,21.5,9.1l-5.6,5.5c-3.5-3.8-9.6-6.6-15.9-6.6c-12,0-21.4,9.6-21.4,22.3
		c0,13.3,9.6,22.3,22.1,22.3c7.9,0,13.6-4.4,16.9-8.3l6,5.4c-5,6.5-13.8,10.9-22.9,10.9c-17.6,0-30.5-12.8-30.5-30.2
		C876.1,416.3,888.9,403,905.9,403"/>
	<path class="st3" d="M973.3,447.6h-24.8l-6.1,15.1h-8.7l24.4-58.8h5.9l24.4,58.8h-8.7L973.3,447.6z M951.9,439.6H970l-9.1-21.9
		L951.9,439.6z"/>
	<polygon class="st3" points="1005.4,454.7 1031.5,454.7 1031.5,462.7 997,462.7 997,403.9 1005.4,403.9 	"/>
</g>
</svg>
