<svg width="84" height="84" viewBox="0 0 84 84" fill="none" xmlns="http://www.w3.org/2000/svg"><path opacity=".8" fill-rule="evenodd" clip-rule="evenodd" d="M27.606 32.03H3v3.86h22.501c.535-1.322 1.407-2.824 2.105-3.86zm-2.472 7.722H3v3.862h23.34c-.552-1.054-1-2.303-1.206-3.862zm9.917-15.445H3v3.861h28.19l3.861-3.861z" fill="#36B68A"/><circle cx="66.712" cy="12.337" r="7.337" stroke="#373A43" stroke-width="2"/><path d="M22.692 20.06l-.944.33a1 1 0 001.236.626l-.292-.956zm-2.703-7.723l-.307-.952a1 1 0 00-.637 1.282l.944-.33zm15.06-4.634l-.243-.97.243.97zm45.95 26.644h1a1 1 0 00-1-1v1zm0 7.723v1a1 1 0 001-1h-1zM55.9 31.258l-.6-.8.6.8zm-10.04 8.109l-.629-.777a1 1 0 00-.288 1.175l.918-.398zm5.407 11.198l-.95.316.95-.316zM18.059 60.99h-1a1 1 0 001 1v-1zm0-7.722v-1a1 1 0 00-1 1h1zm25.87 0v1a1 1 0 00.817-1.578l-.816.578zM35.05 42.07l-.64.768.64-.768zm11.97-21.238l.65.76a1 1 0 00-.032-1.546l-.618.786zm-10.426-5.02l.292.957a1.08 1.08 0 00.08-.028l-.372-.929zm-3.475 48.654v-1a1 1 0 00-.707.293l.707.707zm10.04 0l.743.669a1 1 0 00-.743-1.67v1zM29.257 79.91l-.608.795A1 1 0 0030 80.58l-.742-.669zm-6.565-5.02l-.707-.707a1 1 0 00.1 1.502l.607-.795zm.944-55.162l-2.703-7.722-1.888.66 2.703 7.723 1.888-.66zm-3.34-6.44c4.009-1.293 12.565-4.008 14.995-4.615l-.485-1.94c-2.512.627-11.152 3.37-15.124 4.651l.614 1.904zm14.995-4.615c3.057-.765 5.69-1.023 7.988.947l1.302-1.518c-3.108-2.664-6.653-2.15-9.775-1.37l.485 1.94zm7.988.947c1.394 1.195 5.797 4.325 9.913 7.292a335.365 335.365 0 015.665 4.15 61.26 61.26 0 011.953 1.525c.25.207.453.382.606.524a4.311 4.311 0 01.244.245.198.198 0 01.005.006l1.6-1.2c-.23-.306-.684-.707-1.182-1.117a62.962 62.962 0 00-2.02-1.579 337.282 337.282 0 00-5.702-4.176c-4.187-3.019-8.471-6.066-9.78-7.188L43.279 9.62zm18.385 13.742c1.09 1.454 2.117 3.562 2.117 5.578h2c0-2.617-1.29-5.143-2.517-6.778l-1.6 1.2zm2.117 5.578c0 1.185.095 2.681.543 3.914.227.623.567 1.244 1.092 1.716.546.492 1.243.776 2.068.776v-2c-.333 0-.553-.102-.73-.262-.2-.18-.39-.475-.55-.914-.324-.891-.423-2.098-.423-3.23h-2zm3.703 6.406H81v-2H67.484v2zm12.515-1v7.723h2v-7.723h-2zm1 6.723H68.643v2h12.356v-2zm-12.356 0c-1.74 0-3.515-.526-4.996-1.289-1.506-.775-2.581-1.729-3.028-2.473l-1.715 1.029c.712 1.186 2.146 2.356 3.827 3.222 1.703.878 3.79 1.51 5.912 1.51v-2zm-8.024-3.762c-.51-.85-.963-2.098-1.292-3.318-.331-1.232-.496-2.288-.496-2.732h-2c0 .714.221 1.975.565 3.252.348 1.291.86 2.745 1.508 3.827l1.715-1.03zm-1.788-6.05c0-.304-.02-.695-.162-1.036a1.3 1.3 0 00-1.225-.833c-.425 0-.815.194-1.087.349-.308.176-.662.424-1.057.72l1.2 1.6c.378-.283.651-.47.85-.584a1.37 1.37 0 01.186-.093c.034-.012-.005.008-.091.008a.702.702 0 01-.622-.398c-.017-.04-.011-.047-.004.01a2.1 2.1 0 01.012.257h2zm-3.53-.8c-1.256.941-7.389 5.961-10.07 8.132l1.259 1.554c2.725-2.206 8.794-7.174 10.01-8.086l-1.2-1.6zm-10.358 9.308c.66 1.514 1.875 3.887 2.98 6.067 1.134 2.24 2.116 4.21 2.395 5.048l1.897-.633c-.339-1.016-1.416-3.163-2.508-5.319-1.123-2.216-2.3-4.516-2.93-5.961l-1.834.797zm5.375 11.115c.534 1.603.231 3.917-.844 5.86-1.066 1.93-2.747 3.25-4.772 3.25v2c2.996 0 5.24-1.962 6.523-4.281 1.274-2.304 1.743-5.203.99-7.462l-1.897.633zm-5.616 9.11H18.06v2h26.642v-2zm-25.643 1v-7.723h-2v7.722h2zm-1-6.723h25.87v-2H18.06v2zm26.687-1.578a200.598 200.598 0 00-4.59-6.212c-1.695-2.193-3.438-4.32-4.467-5.177l-1.28 1.537c.824.687 2.427 2.615 4.163 4.863a198.624 198.624 0 014.542 6.145l1.632-1.156zM35.689 41.3c-.4-.332-.777-.907-1.074-1.696-.293-.777-.481-1.694-.548-2.626-.066-.934-.009-1.847.165-2.617.178-.787.456-1.329.752-1.625l-1.415-1.414c-.67.67-1.067 1.624-1.288 2.598-.224.993-.287 2.106-.209 3.2.078 1.095.3 2.205.671 3.19.367.973.906 1.894 1.665 2.527l1.28-1.537zm-.706-8.564c1.51-1.51 9.062-8.038 12.687-11.146l-1.302-1.518c-3.583 3.07-11.219 9.67-12.799 11.25l1.414 1.414zm12.654-12.691c-.907-.713-2.344-1.82-3.712-2.828-1.334-.983-2.698-1.944-3.41-2.3l-.894 1.789c.524.262 1.735 1.102 3.117 2.121 1.348.993 2.768 2.087 3.663 2.79l1.236-1.572zm-7.121-5.128c-.835-.417-1.74-.484-2.478-.431a6.335 6.335 0 00-1.816.397l.743 1.857a4.36 4.36 0 011.215-.26c.53-.037 1.04.025 1.441.226l.895-1.79zm-4.215-.062L22.4 19.104l.585 1.912 13.9-4.247-.584-1.913zm-3.183 50.61h10.04v-2h-10.04v2zm9.296-1.67l-13.9 15.446L30 80.58l13.9-15.445-1.486-1.338zm-12.55 15.321l-6.564-5.02-1.215 1.589 6.564 5.02 1.215-1.589zM23.4 75.599l10.426-10.426-1.414-1.414-10.426 10.425L23.4 75.6z" fill="#373A43"/></svg>