<svg width="84" height="84" viewBox="0 0 84 84" fill="none" xmlns="http://www.w3.org/2000/svg"><path d="M26.71 60.45c0 3.667-2.933 6.6-6.599 6.6a6.572 6.572 0 01-6.6-6.6 6.572 6.572 0 016.6-6.598c3.666 0 6.6 2.933 6.6 6.599zm4.921 17.27v-3.442c0-3.666-2.933-6.6-6.599-6.6h-9.847a6.572 6.572 0 00-6.6 6.6v3.442m40.348-61.055c0 3.666-2.933 6.6-6.6 6.6a6.572 6.572 0 01-6.599-6.6c0-3.666 2.933-6.6 6.6-6.6 3.666 0 6.6 2.934 6.6 6.6zm4.921 17.269v-3.442c0-3.666-2.933-6.6-6.6-6.6h-9.846a6.572 6.572 0 00-6.6 6.6v3.442M71.16 60.287c0 3.666-2.933 6.6-6.6 6.6a6.572 6.572 0 01-6.6-6.6c0-3.666 2.934-6.6 6.6-6.6 3.667 0 6.6 2.934 6.6 6.6zm4.92 17.269v-3.442c0-3.666-2.932-6.6-6.599-6.6h-9.846a6.572 6.572 0 00-6.6 6.6v3.442" stroke="#36B68A" stroke-width="2"/><path d="M33.688 51.794l8.642-4.938m-.002-.001l8.642 4.939m-8.638-13.579v8.642M20.107 82C10.132 82 2 73.934 2 63.936s8.132-18.149 18.107-18.149c9.976 0 18.107 8.15 18.107 18.15C38.13 73.933 30.083 82 20.107 82zm22.229-43.786c-9.976 0-18.107-8.066-18.107-18.065S32.36 2 42.335 2c9.975 0 18.107 8.15 18.107 18.15-.084 9.998-8.132 18.064-18.107 18.064zm22.213 43.623c-9.976 0-18.108-8.066-18.108-18.065s8.132-18.149 18.108-18.149c9.975 0 18.107 8.15 18.107 18.15-.084 9.998-8.132 18.064-18.107 18.064z" stroke="#373A43" stroke-width="2"/></svg>